<svg width="22" height="20" viewBox="0 0 22 20" fill="none" xmlns="http://www.w3.org/2000/svg">
<path d="M9.79524 0.859824C10.0951 -0.0604526 11.397 -0.0604517 11.6969 0.859825L13.4479 6.23422C13.5821 6.64585 13.9658 6.92443 14.3988 6.92443H20.0595C21.0289 6.92443 21.4312 8.16546 20.6462 8.73422L16.0714 12.0489C15.7199 12.3035 15.5728 12.7558 15.7073 13.1684L17.4558 18.5351C17.7559 19.4559 16.7026 20.2229 15.9183 19.6547L11.3328 16.3323C10.9827 16.0787 10.5094 16.0787 10.1593 16.3323L5.57378 19.6547C4.78952 20.2229 3.73623 19.4559 4.03626 18.5351L5.78483 13.1684C5.91928 12.7558 5.7722 12.3035 5.42074 12.0489L0.84587 8.73422C0.0608635 8.16546 0.463194 6.92443 1.43259 6.92443H7.09334C7.52627 6.92443 7.91003 6.64585 8.04415 6.23422L9.79524 0.859824Z" fill="#E5E5E5"/>
</svg>
